<svg preserveAspectRatio="none" overflow="visible" style="display: block;" width="26.8348" height="30" viewBox="0 0 26.8348 30" fill="none" xmlns="http://www.w3.org/2000/svg">
<g id="Heart">
<path id="Vector" d="M14.7918 17.8455C15.2214 17.04 15.6611 16.3888 16.3929 15.9827C17.7892 15.204 19.4473 15.204 20.414 16.9426C20.7597 17.5636 21.0215 18.208 21.1423 18.9062C21.572 21.3665 21.3202 23.7363 20.1824 25.9818C19.6353 27.0626 19.0747 28.1367 18.5008 29.204C18.1114 29.9291 17.571 30.1774 16.8426 29.872C13.1068 28.3078 10.5928 25.6595 9.70329 21.625C9.54553 20.9101 9.54218 20.1649 9.62273 19.4332C9.7872 17.906 10.9318 16.7211 12.2912 16.6305C12.8953 16.5902 13.429 16.7547 13.9023 17.1172C14.1809 17.3286 14.4427 17.5602 14.7918 17.8489V17.8455ZM19.6722 21.098C19.652 20.6852 19.6319 20.269 19.6084 19.8561C19.5648 19.0774 19.3533 18.3457 18.927 17.6878C18.5545 17.1105 18.2893 17.0232 17.6348 17.2212C16.8728 17.4495 16.3257 18.1376 16.2754 19.0035C16.2485 19.5104 16.2922 20.0239 16.3056 20.5341C16.3157 20.994 16.168 21.3632 15.688 21.4874C15.2046 21.6149 14.8958 21.3833 14.7079 20.9436C14.6206 20.7389 14.5266 20.5341 14.4226 20.3394C14.0869 19.7252 13.7513 19.1042 13.1974 18.6444C12.506 18.0671 11.922 18.1745 11.4856 18.9599C11.1735 19.5171 11.1701 20.1213 11.2339 20.7288C11.4051 22.3634 12.0562 23.8168 13.0531 25.0889C13.9829 26.2738 15.0872 27.2975 16.5204 27.8749C17.1145 28.1132 17.2018 28.0863 17.4972 27.5358C17.9167 26.7471 18.343 25.9616 18.7223 25.1527C19.3265 23.8739 19.7897 22.5514 19.6655 21.098H19.6722Z" fill="#FFCECE"/>
<path id="Vector_2" d="M4.014 4.6577C4.1684 3.91591 4.36643 3.28152 4.6853 2.68742C4.9639 2.16715 5.3499 1.7543 5.83995 1.43879C6.9711 0.713776 8.21302 0.858107 9.14613 1.81807C9.83758 2.52966 10.1665 3.41243 10.378 4.36568C10.7774 6.17821 10.4585 7.93703 9.88457 9.63208C9.53885 10.6458 9.35424 11.6594 9.28375 12.71C9.22333 13.5995 8.87761 13.9452 7.93778 13.8747C7.24298 13.8244 6.52133 13.7539 5.88694 13.4485C3.05067 12.1025 0.942773 10.0986 0.177484 6.93343C0.117067 6.6884 0.11371 6.42659 0.0532925 6.18156C-0.279004 4.81546 0.976339 3.36879 2.89627 4.06695C3.24871 4.1945 3.56422 4.41939 4.014 4.66106V4.6577ZM7.66255 12.2065C7.70618 10.9948 8.06198 9.88717 8.43119 8.76609C8.78699 7.68193 9.0018 6.54407 8.86419 5.376C8.77692 4.64092 8.6393 3.92262 8.22309 3.29495C7.67597 2.46924 6.85362 2.4491 6.28637 3.26138C5.95407 3.73465 5.7359 4.26163 5.74932 4.8658C5.75939 5.41292 5.87016 5.93654 5.98428 6.46687C6.07155 6.85958 5.98764 7.24223 5.58821 7.45369C5.1955 7.66179 4.84977 7.54096 4.54433 7.24894C4.43021 7.13818 4.31944 7.02405 4.20196 6.91329C3.66156 6.40981 3.04732 6.00367 2.39951 5.66466C1.89603 5.39949 1.68457 5.56061 1.7282 6.12786C1.78862 6.93678 2.04372 7.69872 2.47335 8.38009C3.33598 9.75291 4.47049 10.8606 5.89701 11.6426C6.42063 11.9313 6.9711 12.1898 7.6659 12.2032L7.66255 12.2065Z" fill="#FFCECE"/>
<path id="Vector_3" d="M22.3339 1.54953C22.9348 0.817807 23.5624 0.381458 24.4351 0.368032C25.6066 0.347892 26.6034 1.14339 26.778 2.31146C26.9122 3.20766 26.8015 4.08371 26.5195 4.94634C25.912 6.8025 24.7641 8.32301 23.5524 9.8066C22.9885 10.4947 22.4581 11.2197 21.7398 11.7635C21.1357 12.2199 20.3838 12.0857 20.1925 11.3909C19.9374 10.4745 19.3768 9.74282 18.9707 8.92047C18.3162 7.60471 17.7456 6.27217 17.5878 4.78187C17.477 3.73799 17.6113 2.75117 17.947 1.77777C18.1517 1.18367 18.5511 0.730537 19.068 0.391527C20.0985 -0.283135 21.1692 -0.0750305 21.911 0.931929C22.0386 1.10647 22.1594 1.29108 22.3373 1.54953H22.3339ZM21.3908 9.82338C21.8775 9.24606 22.3004 8.77278 22.6897 8.27266C23.6195 7.09452 24.472 5.86939 24.9587 4.42608C25.1366 3.8991 25.187 3.37213 25.1702 2.82837C25.1601 2.44572 25.0359 2.11343 24.6399 2.01944C24.2539 1.92882 23.9585 2.15371 23.7638 2.46922C23.596 2.73774 23.4617 3.02976 23.3375 3.32178C23.1261 3.81519 23.0187 4.40929 22.3172 4.42272C21.5418 4.4395 21.4747 3.77827 21.2498 3.26807C21.082 2.88879 20.9242 2.50614 20.7228 2.14364C20.4106 1.58645 20.0179 1.57974 19.6454 2.11343C19.5379 2.26783 19.4708 2.45244 19.4104 2.63033C19.1251 3.46947 19.1385 4.32538 19.3097 5.17794C19.642 6.82935 20.461 8.26259 21.3874 9.82338H21.3908Z" fill="#FFCECE"/>
</g>
</svg>
